<svg xmlns="http://www.w3.org/2000/svg" viewBox="0 0 1024 1024">
<defs>
 <linearGradient id="bg" x1="0" y1="0" x2="0" y2="1"><stop offset="0" stop-color="#2C2622"/><stop offset="1" stop-color="#0D0B0A"/></linearGradient>
 <radialGradient id="glow" cx="0.5" cy="0.42" r="0.55"><stop offset="0" stop-color="#FF5B36" stop-opacity=".22"/><stop offset="1" stop-color="#FF5B36" stop-opacity="0"/></radialGradient>
 <linearGradient id="em" x1="0.15" y1="0" x2="0.85" y2="1"><stop offset="0" stop-color="#FF9456"/><stop offset="1" stop-color="#FF4A2E"/></linearGradient>
 <linearGradient id="lip" x1="0" y1="0" x2="0" y2="1"><stop offset="0" stop-color="#fff" stop-opacity=".18"/><stop offset=".05" stop-color="#fff" stop-opacity="0"/></linearGradient>
 <filter id="drop" x="-20%" y="-20%" width="140%" height="140%"><feDropShadow dx="0" dy="14" stdDeviation="18" flood-color="#000" flood-opacity=".38"/></filter>
 <filter id="markShadow" x="-20%" y="-20%" width="140%" height="140%"><feDropShadow dx="0" dy="10" stdDeviation="12" flood-color="#000" flood-opacity=".45"/></filter>
</defs>
<g filter="url(#drop)"><rect x="100" y="100" width="824" height="824" rx="185" fill="url(#bg)"/></g>
<rect x="100" y="100" width="824" height="824" rx="185" fill="url(#glow)"/>
<rect x="100" y="100" width="824" height="824" rx="185" fill="url(#lip)"/>
<g transform="translate(512 512) scale(8.4) translate(-52.5 -54)" filter="url(#markShadow)"><path fill="url(#em)" fill-rule="evenodd" d="M26 31 C26 26.6 29.6 23 34 23 H50 A27 27 0 0 1 50 77 H40 L29.5 85.2 C28 86.4 26 85.3 26 83.4 Z M41 35 H55 A2.5 2.5 0 0 1 55 40 H50.5 V60 H55 A2.5 2.5 0 0 1 55 65 H41 A2.5 2.5 0 0 1 41 60 H45.5 V40 H41 A2.5 2.5 0 0 1 41 35 Z"/></g>
</svg>